<svg width="95" height="95" viewBox="0 0 95 95" fill="none" xmlns="http://www.w3.org/2000/svg">
<path d="M37.5638 43.4519C38.4766 42.7909 38.9173 41.6997 38.9173 40.1992C38.9488 39.4857 38.8019 38.7827 38.4871 38.1427C38.2038 37.6285 37.7841 37.1983 37.27 36.894C36.7369 36.5707 36.1448 36.3567 35.5282 36.2645C34.8567 36.1386 34.1746 36.0756 33.5031 36.0861H26.1268V44.4487H34.1117C35.4862 44.4592 36.6509 44.1235 37.5638 43.4519ZM38.8019 51.0066C37.7736 50.2197 36.3991 49.8315 34.6888 49.8315H26.1058V59.6946H34.5209C35.3078 59.6946 36.0318 59.6211 36.7348 59.4742C37.4 59.3442 38.034 59.0877 38.6025 58.7187C39.1377 58.3725 39.5679 57.9003 39.8931 57.2917C40.2079 56.6832 40.3653 55.9067 40.3653 54.9729C40.3653 53.1157 39.8407 51.8041 38.8019 51.0066ZM47.1855 0.820312C21.2267 0.820312 0.178467 21.8686 0.178467 47.8274C0.178467 73.7862 21.2267 94.8344 47.1855 94.8344C73.1443 94.8344 94.1926 73.7862 94.1926 47.8274C94.1926 21.8686 73.1443 0.820312 47.1855 0.820312ZM56.2617 30.9237H70.7835V34.4597H56.2617V30.9237ZM47.1855 60.0828C46.5063 61.3721 45.5364 62.4857 44.3525 63.3355C43.1144 64.1959 41.7398 64.8255 40.2814 65.1927C38.7555 65.6016 37.1814 65.8028 35.6016 65.7908H18.2258V30.0004H35.119C36.8293 30.0004 38.3822 30.1578 39.7987 30.4515C41.2047 30.7453 42.4009 31.249 43.4082 31.931C44.405 32.613 45.1919 33.5259 45.748 34.6591C46.2937 35.7818 46.577 37.1878 46.577 38.8562C46.577 40.6609 46.1677 42.1508 45.3493 43.3575C44.5204 44.5642 43.3242 45.54 41.6979 46.3059C43.9118 46.9355 45.5382 48.0582 46.6084 49.6321C47.6997 51.227 48.2348 53.1367 48.2348 55.3821C48.2348 57.2078 47.8885 58.7712 47.1855 60.0828ZM76.439 54.5427H57.7201C57.7201 56.5782 58.4232 58.5299 59.4829 59.5791C60.5532 60.6179 62.0851 61.1425 64.0892 61.1425C65.5372 61.1425 66.7648 60.7753 67.8141 60.0513C68.8528 59.3273 69.4824 58.5614 69.7132 57.7639H75.9878C74.9806 60.8802 73.4486 63.1047 71.3711 64.4477C69.3145 65.7908 66.7963 66.4623 63.8688 66.4623C61.8228 66.4623 59.9866 66.1265 58.3392 65.4865C56.7548 64.8674 55.3278 63.9231 54.1526 62.7059C52.9939 61.456 52.0983 59.9859 51.519 58.383C50.8789 56.6097 50.5642 54.742 50.5851 52.8638C50.5851 50.9227 50.9104 49.118 51.54 47.4391C52.7466 44.1759 55.2544 41.5633 58.4546 40.2097C60.1649 39.4962 62.0011 39.1395 63.8583 39.1604C66.0618 39.1604 67.9715 39.5802 69.6293 40.4406C71.2253 41.2621 72.611 42.4397 73.6795 43.8821C74.7392 45.3196 75.4842 46.9565 75.9564 48.8032C76.4076 50.6184 76.5649 52.5281 76.439 54.5427ZM63.638 44.5117C62.5048 44.5117 61.55 44.7111 60.8155 45.0993C60.081 45.4875 59.4724 45.9702 59.0107 46.5263C58.5711 47.0632 58.2461 47.6846 58.0559 48.352C57.888 48.9081 57.7726 49.4747 57.7306 50.0518H69.325C69.1571 48.2366 68.5276 46.8935 67.6882 45.9492C66.8068 45.0153 65.3903 44.5117 63.638 44.5117Z" fill="#FBFBFB"/>
</svg>
