<svg width="87" height="87" viewBox="0 0 87 87" fill="none" xmlns="http://www.w3.org/2000/svg">
<path d="M77.3908 0.421875H9.3665C6.90634 0.421875 4.54694 1.39917 2.80734 3.13876C1.06775 4.87836 0.0904541 7.23776 0.0904541 9.69792L0.0904541 77.7222C0.0904541 80.1824 1.06775 82.5418 2.80734 84.2814C4.54694 86.021 6.90634 86.9983 9.3665 86.9983H35.8902V57.5642H23.7154V43.7101H35.8902V33.1508C35.8902 21.1403 43.0405 14.506 53.992 14.506C59.2368 14.506 64.7213 15.4413 64.7213 15.4413V27.2296H58.6783C52.7243 27.2296 50.8671 30.9246 50.8671 34.7142V43.7101H64.1589L62.0331 57.5642H50.8671V86.9983H77.3908C79.851 86.9983 82.2104 86.021 83.9499 84.2814C85.6895 82.5418 86.6668 80.1824 86.6668 77.7222V9.69792C86.6668 7.23776 85.6895 4.87836 83.9499 3.13876C82.2104 1.39917 79.851 0.421875 77.3908 0.421875Z" fill="#FBFBFB"/>
</svg>
