<svg width="92" height="93" viewBox="0 0 92 93" fill="none" xmlns="http://www.w3.org/2000/svg">
<path d="M45.9922 0.820312C20.6471 0.820312 0.102051 21.3653 0.102051 46.7105C0.102051 72.0556 20.6471 92.6006 45.9922 92.6006C71.3373 92.6006 91.8824 72.0556 91.8824 46.7105C91.8824 21.3653 71.3373 0.820312 45.9922 0.820312ZM45.9922 7.4698C55.9894 7.4698 65.1146 11.2098 72.0441 17.3637C66.9525 24.0797 59.2178 28.5517 51.4669 31.5782C47.0792 23.5872 42.1618 15.8987 36.7476 8.56428C39.7757 7.83439 42.8797 7.46699 45.9945 7.4698H45.9922ZM29.2974 11.1869C34.4141 18.8414 39.3703 25.9383 43.8973 33.9714C32.4477 36.9382 19.509 38.7187 7.55691 38.7485C10.0763 26.5234 18.2883 16.3725 29.2974 11.1892V11.1869ZM76.3967 21.9023C82.0671 28.8316 85.1863 37.4977 85.2329 46.4512C76.1558 44.6615 67.1292 44.1934 57.9374 45.1204C56.9049 42.5436 55.6521 40.0954 54.4521 37.4567C62.375 34.2605 70.8463 28.7904 76.3967 21.9V21.9023ZM47.0844 40.0426C48.0664 42.1306 49.2045 44.3471 50.2738 46.6118C37.4934 52.2471 23.8984 59.7777 16.8428 72.9803C10.0694 65.4848 6.45968 55.6587 6.76989 45.5609C20.4566 45.4967 33.891 43.785 47.0844 40.0426ZM67.8222 50.7419C73.5328 50.7431 79.2197 51.4757 84.7442 52.9217C83.8924 58.2363 81.9562 63.3189 79.0561 67.8532C76.1559 72.3875 72.3539 76.2767 67.8864 79.2787C65.78 69.6992 63.7724 60.5326 60.2227 51.2903C62.7385 50.9237 65.2775 50.7397 67.8199 50.7396L67.8222 50.7419ZM84.9484 51.4532C84.9208 51.6781 84.8956 51.8984 84.8635 52.1186C84.8956 51.8961 84.9231 51.6758 84.9484 51.4532ZM52.9629 53.0823C56.5791 62.4279 59.4174 72.7761 61.3218 82.8467C56.474 84.9036 51.2607 85.9603 45.9945 85.9534C37.2704 85.9659 28.7932 83.058 21.9136 77.6932C29.0197 66.1656 40.0265 57.4419 52.9606 53.0846L52.9629 53.0823Z" fill="#FBFBFB"/>
</svg>
