<svg width="87" height="88" viewBox="0 0 87 88" fill="none" xmlns="http://www.w3.org/2000/svg">
<path d="M43.5815 21.63C31.295 21.63 21.3846 31.5404 21.3846 43.827C21.3846 56.1136 31.295 66.0239 43.5815 66.0239C55.8681 66.0239 65.7785 56.1136 65.7785 43.827C65.7785 31.5404 55.8681 21.63 43.5815 21.63ZM43.5815 58.2579C35.6416 58.2579 29.1506 51.7862 29.1506 43.827C29.1506 35.8678 35.6223 29.3961 43.5815 29.3961C51.5408 29.3961 58.0125 35.8678 58.0125 43.827C58.0125 51.7862 51.5215 58.2579 43.5815 58.2579ZM71.8638 20.7221C71.8638 23.6005 69.5456 25.8994 66.6865 25.8994C63.808 25.8994 61.5091 23.5812 61.5091 20.7221C61.5091 17.8629 63.8273 15.5447 66.6865 15.5447C69.5456 15.5447 71.8638 17.8629 71.8638 20.7221ZM86.5652 25.9767C86.2368 19.0414 84.6527 12.8981 79.5719 7.83663C74.5105 2.77518 68.3672 1.19106 61.4318 0.843329C54.284 0.43764 32.8598 0.43764 25.7119 0.843329C18.7959 1.17174 12.6526 2.75586 7.57186 7.81731C2.49109 12.8788 0.926291 19.022 0.578558 25.9574C0.17287 33.1052 0.17287 54.5294 0.578558 61.6773C0.906973 68.6126 2.49109 74.7559 7.57186 79.8174C12.6526 84.8788 18.7766 86.4629 25.7119 86.8107C32.8598 87.2163 54.284 87.2163 61.4318 86.8107C68.3672 86.4822 74.5105 84.8981 79.5719 79.8174C84.6334 74.7559 86.2175 68.6126 86.5652 61.6773C86.9709 54.5294 86.9709 33.1245 86.5652 25.9767ZM77.331 69.3467C75.8241 73.1332 72.907 76.0503 69.1013 77.5764C63.4023 79.8367 49.8794 79.3151 43.5815 79.3151C37.2837 79.3151 23.7414 79.8174 18.0618 77.5764C14.2754 76.0696 11.3583 73.1525 9.83212 69.3467C7.57186 63.6478 8.09346 50.1248 8.09346 43.827C8.09346 37.5292 7.59118 23.9869 9.83212 18.3073C11.339 14.5208 14.2561 11.6037 18.0618 10.0776C23.7608 7.81731 37.2837 8.33891 43.5815 8.33891C49.8794 8.33891 63.4217 7.83663 69.1013 10.0776C72.8877 11.5844 75.8048 14.5015 77.331 18.3073C79.5912 24.0062 79.0696 37.5292 79.0696 43.827C79.0696 50.1248 79.5912 63.6671 77.331 69.3467Z" fill="#FBFBFB"/>
</svg>
